<svg xmlns="http://www.w3.org/2000/svg" viewBox="0 0 128 128" role="img" aria-labelledby="title">
  <title id="title">Linux</title>
  <ellipse cx="64" cy="111" rx="38" ry="9" fill="#050505" opacity=".28"/>
  <path fill="#111" d="M83 64c-1-13-4-27-11-34-3-3-6-5-8-5s-5 2-8 5c-7 7-10 21-11 34-1 12-10 21-16 29-5 7-1 18 9 18 7 0 12-5 16-8 3 2 6 3 10 3s7-1 10-3c4 3 9 8 16 8 10 0 14-11 9-18-6-8-15-17-16-29Z"/>
  <ellipse cx="64" cy="72" rx="23" ry="31" fill="#f7f7f7"/>
  <circle cx="55" cy="45" r="6" fill="#fff"/>
  <circle cx="73" cy="45" r="6" fill="#fff"/>
  <circle cx="56" cy="46" r="2.5" fill="#111"/>
  <circle cx="72" cy="46" r="2.5" fill="#111"/>
  <path fill="#f5b82e" d="M57 57c3 3 11 3 14 0-1 5-4 8-7 8s-6-3-7-8Z"/>
  <path fill="#f5b82e" d="M49 103c-6 7-16 9-22 5-3-2-3-7 0-10 5-5 14-4 22 5Zm30 0c6 7 16 9 22 5 3-2 3-7 0-10-5-5-14-4-22 5Z"/>
</svg>
